<?xml version="1.0" encoding="UTF-8" ?>
<svg version="1.1" width="24" height="24" xmlns="http://www.w3.org/2000/svg" shape-rendering="crispEdges">
<rect x="3" y="5" width="1" height="1" fill="#F9FEFD" />
<rect x="4" y="5" width="1" height="1" fill="#F9FEFD" />
<rect x="5" y="5" width="1" height="1" fill="#F9FEFD" />
<rect x="6" y="5" width="1" height="1" fill="#F9FEFD" />
<rect x="7" y="5" width="1" height="1" fill="#F9FEFD" />
<rect x="8" y="5" width="1" height="1" fill="#F9FEFD" />
<rect x="9" y="5" width="1" height="1" fill="#F9FEFD" />
<rect x="10" y="5" width="1" height="1" fill="#F9FEFD" />
<rect x="11" y="5" width="1" height="1" fill="#F9FEFD" />
<rect x="12" y="5" width="1" height="1" fill="#F9FEFD" />
<rect x="13" y="5" width="1" height="1" fill="#F9FEFD" />
<rect x="14" y="5" width="1" height="1" fill="#F9FEFD" />
<rect x="15" y="5" width="1" height="1" fill="#F9FEFD" />
<rect x="16" y="5" width="1" height="1" fill="#F9FEFD" />
<rect x="17" y="5" width="1" height="1" fill="#F9FEFD" />
<rect x="18" y="5" width="1" height="1" fill="#F9FEFD" />
<rect x="19" y="5" width="1" height="1" fill="#B4C0BC" />
<rect x="20" y="5" width="1" height="1" fill="#B4C0BC" />
<rect x="3" y="6" width="1" height="1" fill="#F9FEFD" />
<rect x="4" y="6" width="1" height="1" fill="#F9FEFD" />
<rect x="5" y="6" width="1" height="1" fill="#F9FEFD" />
<rect x="6" y="6" width="1" height="1" fill="#F9FEFD" />
<rect x="7" y="6" width="1" height="1" fill="#F9FEFD" />
<rect x="8" y="6" width="1" height="1" fill="#F9FEFD" />
<rect x="9" y="6" width="1" height="1" fill="#F9FEFD" />
<rect x="10" y="6" width="1" height="1" fill="#F9FEFD" />
<rect x="11" y="6" width="1" height="1" fill="#F9FEFD" />
<rect x="12" y="6" width="1" height="1" fill="#F9FEFD" />
<rect x="13" y="6" width="1" height="1" fill="#F9FEFD" />
<rect x="14" y="6" width="1" height="1" fill="#F9FEFD" />
<rect x="15" y="6" width="1" height="1" fill="#F9FEFD" />
<rect x="16" y="6" width="1" height="1" fill="#F9FEFD" />
<rect x="17" y="6" width="1" height="1" fill="#F9FEFD" />
<rect x="18" y="6" width="1" height="1" fill="#F9FEFD" />
<rect x="19" y="6" width="1" height="1" fill="#B4C0BC" />
<rect x="20" y="6" width="1" height="1" fill="#B4C0BC" />
<rect x="3" y="11" width="1" height="1" fill="#F9FEFD" />
<rect x="4" y="11" width="1" height="1" fill="#F9FEFD" />
<rect x="5" y="11" width="1" height="1" fill="#F9FEFD" />
<rect x="6" y="11" width="1" height="1" fill="#F9FEFD" />
<rect x="7" y="11" width="1" height="1" fill="#F9FEFD" />
<rect x="8" y="11" width="1" height="1" fill="#F9FEFD" />
<rect x="9" y="11" width="1" height="1" fill="#F9FEFD" />
<rect x="10" y="11" width="1" height="1" fill="#F9FEFD" />
<rect x="11" y="11" width="1" height="1" fill="#F9FEFD" />
<rect x="12" y="11" width="1" height="1" fill="#F9FEFD" />
<rect x="13" y="11" width="1" height="1" fill="#F9FEFD" />
<rect x="14" y="11" width="1" height="1" fill="#F9FEFD" />
<rect x="15" y="11" width="1" height="1" fill="#F9FEFD" />
<rect x="16" y="11" width="1" height="1" fill="#F9FEFD" />
<rect x="17" y="11" width="1" height="1" fill="#F9FEFD" />
<rect x="18" y="11" width="1" height="1" fill="#F9FEFD" />
<rect x="19" y="11" width="1" height="1" fill="#B4C0BC" />
<rect x="20" y="11" width="1" height="1" fill="#B4C0BC" />
<rect x="3" y="12" width="1" height="1" fill="#F9FEFD" />
<rect x="4" y="12" width="1" height="1" fill="#F9FEFD" />
<rect x="5" y="12" width="1" height="1" fill="#F9FEFD" />
<rect x="6" y="12" width="1" height="1" fill="#F9FEFD" />
<rect x="7" y="12" width="1" height="1" fill="#F9FEFD" />
<rect x="8" y="12" width="1" height="1" fill="#F9FEFD" />
<rect x="9" y="12" width="1" height="1" fill="#F9FEFD" />
<rect x="10" y="12" width="1" height="1" fill="#F9FEFD" />
<rect x="11" y="12" width="1" height="1" fill="#F9FEFD" />
<rect x="12" y="12" width="1" height="1" fill="#F9FEFD" />
<rect x="13" y="12" width="1" height="1" fill="#F9FEFD" />
<rect x="14" y="12" width="1" height="1" fill="#F9FEFD" />
<rect x="15" y="12" width="1" height="1" fill="#F9FEFD" />
<rect x="16" y="12" width="1" height="1" fill="#F9FEFD" />
<rect x="17" y="12" width="1" height="1" fill="#F9FEFD" />
<rect x="18" y="12" width="1" height="1" fill="#F9FEFD" />
<rect x="19" y="12" width="1" height="1" fill="#B4C0BC" />
<rect x="20" y="12" width="1" height="1" fill="#B4C0BC" />
<rect x="3" y="17" width="1" height="1" fill="#F9FEFD" />
<rect x="4" y="17" width="1" height="1" fill="#F9FEFD" />
<rect x="5" y="17" width="1" height="1" fill="#F9FEFD" />
<rect x="6" y="17" width="1" height="1" fill="#F9FEFD" />
<rect x="7" y="17" width="1" height="1" fill="#F9FEFD" />
<rect x="8" y="17" width="1" height="1" fill="#F9FEFD" />
<rect x="9" y="17" width="1" height="1" fill="#F9FEFD" />
<rect x="10" y="17" width="1" height="1" fill="#F9FEFD" />
<rect x="11" y="17" width="1" height="1" fill="#F9FEFD" />
<rect x="12" y="17" width="1" height="1" fill="#F9FEFD" />
<rect x="13" y="17" width="1" height="1" fill="#F9FEFD" />
<rect x="14" y="17" width="1" height="1" fill="#F9FEFD" />
<rect x="15" y="17" width="1" height="1" fill="#F9FEFD" />
<rect x="16" y="17" width="1" height="1" fill="#F9FEFD" />
<rect x="17" y="17" width="1" height="1" fill="#F9FEFD" />
<rect x="18" y="17" width="1" height="1" fill="#F9FEFD" />
<rect x="19" y="17" width="1" height="1" fill="#B4C0BC" />
<rect x="20" y="17" width="1" height="1" fill="#B4C0BC" />
<rect x="3" y="18" width="1" height="1" fill="#F9FEFD" />
<rect x="4" y="18" width="1" height="1" fill="#F9FEFD" />
<rect x="5" y="18" width="1" height="1" fill="#F9FEFD" />
<rect x="6" y="18" width="1" height="1" fill="#F9FEFD" />
<rect x="7" y="18" width="1" height="1" fill="#F9FEFD" />
<rect x="8" y="18" width="1" height="1" fill="#F9FEFD" />
<rect x="9" y="18" width="1" height="1" fill="#F9FEFD" />
<rect x="10" y="18" width="1" height="1" fill="#F9FEFD" />
<rect x="11" y="18" width="1" height="1" fill="#F9FEFD" />
<rect x="12" y="18" width="1" height="1" fill="#F9FEFD" />
<rect x="13" y="18" width="1" height="1" fill="#F9FEFD" />
<rect x="14" y="18" width="1" height="1" fill="#F9FEFD" />
<rect x="15" y="18" width="1" height="1" fill="#F9FEFD" />
<rect x="16" y="18" width="1" height="1" fill="#F9FEFD" />
<rect x="17" y="18" width="1" height="1" fill="#F9FEFD" />
<rect x="18" y="18" width="1" height="1" fill="#F9FEFD" />
<rect x="19" y="18" width="1" height="1" fill="#B4C0BC" />
<rect x="20" y="18" width="1" height="1" fill="#B4C0BC" />
</svg>