<?xml version="1.0" encoding="UTF-8" ?>
<svg version="1.1" width="40" height="40" xmlns="http://www.w3.org/2000/svg" shape-rendering="crispEdges">
<rect x="13" y="13" width="1" height="1" fill="#F8FEFC" opacity="0.764706" />
<rect x="14" y="13" width="1" height="1" fill="#F9FEFD" opacity="0.800000" />
<rect x="15" y="13" width="1" height="1" fill="#F3FFFF" opacity="0.086275" />
<rect x="24" y="13" width="1" height="1" fill="#F3FFFF" opacity="0.086275" />
<rect x="25" y="13" width="1" height="1" fill="#F9FEFD" opacity="0.800000" />
<rect x="26" y="13" width="1" height="1" fill="#F8FEFC" opacity="0.764706" />
<rect x="13" y="14" width="1" height="1" fill="#F9FEFC" opacity="0.792157" />
<rect x="14" y="14" width="1" height="1" fill="#F9FEFD" />
<rect x="15" y="14" width="1" height="1" fill="#F9FEFD" opacity="0.827451" />
<rect x="16" y="14" width="1" height="1" fill="#F3FFFF" opacity="0.086275" />
<rect x="23" y="14" width="1" height="1" fill="#F3FFFF" opacity="0.086275" />
<rect x="24" y="14" width="1" height="1" fill="#F9FEFD" opacity="0.827451" />
<rect x="25" y="14" width="1" height="1" fill="#F9FEFD" />
<rect x="26" y="14" width="1" height="1" fill="#F9FEFC" opacity="0.792157" />
<rect x="13" y="15" width="1" height="1" fill="#FFFFFF" opacity="0.082353" />
<rect x="14" y="15" width="1" height="1" fill="#F9FEFD" opacity="0.823529" />
<rect x="15" y="15" width="1" height="1" fill="#F9FEFD" />
<rect x="16" y="15" width="1" height="1" fill="#F9FEFD" opacity="0.843137" />
<rect x="17" y="15" width="1" height="1" fill="#F5FFFF" opacity="0.098039" />
<rect x="22" y="15" width="1" height="1" fill="#FFFFFF" opacity="0.082353" />
<rect x="23" y="15" width="1" height="1" fill="#F9FEFD" opacity="0.823529" />
<rect x="24" y="15" width="1" height="1" fill="#F9FEFD" />
<rect x="25" y="15" width="1" height="1" fill="#F9FEFD" opacity="0.843137" />
<rect x="26" y="15" width="1" height="1" fill="#F4FFFF" opacity="0.094118" />
<rect x="14" y="16" width="1" height="1" fill="#FFFFFF" opacity="0.082353" />
<rect x="15" y="16" width="1" height="1" fill="#F9FEFD" opacity="0.823529" />
<rect x="16" y="16" width="1" height="1" fill="#F9FEFD" />
<rect x="17" y="16" width="1" height="1" fill="#F9FEFD" opacity="0.843137" />
<rect x="18" y="16" width="1" height="1" fill="#F5FFFF" opacity="0.098039" />
<rect x="21" y="16" width="1" height="1" fill="#FFFFFF" opacity="0.082353" />
<rect x="22" y="16" width="1" height="1" fill="#F9FEFD" opacity="0.823529" />
<rect x="23" y="16" width="1" height="1" fill="#F9FEFD" />
<rect x="24" y="16" width="1" height="1" fill="#F9FEFD" opacity="0.843137" />
<rect x="25" y="16" width="1" height="1" fill="#F4FFFF" opacity="0.094118" />
<rect x="15" y="17" width="1" height="1" fill="#FFFFFF" opacity="0.082353" />
<rect x="16" y="17" width="1" height="1" fill="#F9FEFD" opacity="0.823529" />
<rect x="17" y="17" width="1" height="1" fill="#F9FEFD" />
<rect x="18" y="17" width="1" height="1" fill="#F9FEFD" opacity="0.843137" />
<rect x="19" y="17" width="1" height="1" fill="#F5FFFF" opacity="0.098039" />
<rect x="20" y="17" width="1" height="1" fill="#FFFFFF" opacity="0.082353" />
<rect x="21" y="17" width="1" height="1" fill="#F9FEFD" opacity="0.823529" />
<rect x="22" y="17" width="1" height="1" fill="#F9FEFD" />
<rect x="23" y="17" width="1" height="1" fill="#F9FEFD" opacity="0.843137" />
<rect x="24" y="17" width="1" height="1" fill="#F4FFFF" opacity="0.094118" />
<rect x="16" y="18" width="1" height="1" fill="#FFFFFF" opacity="0.082353" />
<rect x="17" y="18" width="1" height="1" fill="#F9FEFD" opacity="0.823529" />
<rect x="18" y="18" width="1" height="1" fill="#F9FEFD" />
<rect x="19" y="18" width="1" height="1" fill="#F9FEFD" opacity="0.854902" />
<rect x="20" y="18" width="1" height="1" fill="#F9FFFE" opacity="0.839216" />
<rect x="21" y="18" width="1" height="1" fill="#F9FEFD" />
<rect x="22" y="18" width="1" height="1" fill="#F9FEFD" opacity="0.843137" />
<rect x="23" y="18" width="1" height="1" fill="#F4FFFF" opacity="0.094118" />
<rect x="17" y="19" width="1" height="1" fill="#FFFFFF" opacity="0.082353" />
<rect x="18" y="19" width="1" height="1" fill="#F9FEFD" opacity="0.839216" />
<rect x="19" y="19" width="1" height="1" fill="#F9FEFD" />
<rect x="20" y="19" width="1" height="1" fill="#F9FEFD" />
<rect x="21" y="19" width="1" height="1" fill="#F8FEFD" opacity="0.858824" />
<rect x="22" y="19" width="1" height="1" fill="#F4FFFF" opacity="0.094118" />
<rect x="17" y="20" width="1" height="1" fill="#FFFFFF" opacity="0.082353" />
<rect x="18" y="20" width="1" height="1" fill="#F9FEFD" opacity="0.839216" />
<rect x="19" y="20" width="1" height="1" fill="#F9FEFD" />
<rect x="20" y="20" width="1" height="1" fill="#F9FEFD" />
<rect x="21" y="20" width="1" height="1" fill="#F9FEFD" opacity="0.858824" />
<rect x="22" y="20" width="1" height="1" fill="#F5FFFF" opacity="0.098039" />
<rect x="16" y="21" width="1" height="1" fill="#FFFFFF" opacity="0.082353" />
<rect x="17" y="21" width="1" height="1" fill="#F9FEFD" opacity="0.823529" />
<rect x="18" y="21" width="1" height="1" fill="#F9FEFD" />
<rect x="19" y="21" width="1" height="1" fill="#FAFEFD" opacity="0.854902" />
<rect x="20" y="21" width="1" height="1" fill="#F9FEFD" opacity="0.839216" />
<rect x="21" y="21" width="1" height="1" fill="#F9FEFD" />
<rect x="22" y="21" width="1" height="1" fill="#F9FEFD" opacity="0.843137" />
<rect x="23" y="21" width="1" height="1" fill="#F5FFFF" opacity="0.098039" />
<rect x="15" y="22" width="1" height="1" fill="#FFFFFF" opacity="0.082353" />
<rect x="16" y="22" width="1" height="1" fill="#F9FEFD" opacity="0.823529" />
<rect x="17" y="22" width="1" height="1" fill="#F9FEFD" />
<rect x="18" y="22" width="1" height="1" fill="#F9FEFD" opacity="0.843137" />
<rect x="19" y="22" width="1" height="1" fill="#F4FFFF" opacity="0.094118" />
<rect x="20" y="22" width="1" height="1" fill="#FFFFFF" opacity="0.082353" />
<rect x="21" y="22" width="1" height="1" fill="#F9FEFD" opacity="0.823529" />
<rect x="22" y="22" width="1" height="1" fill="#F9FEFD" />
<rect x="23" y="22" width="1" height="1" fill="#F9FEFD" opacity="0.843137" />
<rect x="24" y="22" width="1" height="1" fill="#F5FFFF" opacity="0.098039" />
<rect x="14" y="23" width="1" height="1" fill="#FFFFFF" opacity="0.082353" />
<rect x="15" y="23" width="1" height="1" fill="#F9FEFD" opacity="0.823529" />
<rect x="16" y="23" width="1" height="1" fill="#F9FEFD" />
<rect x="17" y="23" width="1" height="1" fill="#F9FEFD" opacity="0.843137" />
<rect x="18" y="23" width="1" height="1" fill="#F4FFFF" opacity="0.094118" />
<rect x="21" y="23" width="1" height="1" fill="#FFFFFF" opacity="0.082353" />
<rect x="22" y="23" width="1" height="1" fill="#F9FEFD" opacity="0.823529" />
<rect x="23" y="23" width="1" height="1" fill="#F9FEFD" />
<rect x="24" y="23" width="1" height="1" fill="#F9FEFD" opacity="0.843137" />
<rect x="25" y="23" width="1" height="1" fill="#F5FFFF" opacity="0.098039" />
<rect x="13" y="24" width="1" height="1" fill="#FFFFFF" opacity="0.082353" />
<rect x="14" y="24" width="1" height="1" fill="#F9FEFD" opacity="0.823529" />
<rect x="15" y="24" width="1" height="1" fill="#F9FEFD" />
<rect x="16" y="24" width="1" height="1" fill="#F9FEFD" opacity="0.843137" />
<rect x="17" y="24" width="1" height="1" fill="#F4FFFF" opacity="0.094118" />
<rect x="22" y="24" width="1" height="1" fill="#FFFFFF" opacity="0.082353" />
<rect x="23" y="24" width="1" height="1" fill="#F9FEFD" opacity="0.823529" />
<rect x="24" y="24" width="1" height="1" fill="#F9FEFD" />
<rect x="25" y="24" width="1" height="1" fill="#F9FEFD" opacity="0.843137" />
<rect x="26" y="24" width="1" height="1" fill="#F5FFFF" opacity="0.098039" />
<rect x="13" y="25" width="1" height="1" fill="#F9FEFC" opacity="0.792157" />
<rect x="14" y="25" width="1" height="1" fill="#F9FEFD" />
<rect x="15" y="25" width="1" height="1" fill="#F9FEFD" opacity="0.827451" />
<rect x="16" y="25" width="1" height="1" fill="#F3FFFF" opacity="0.086275" />
<rect x="23" y="25" width="1" height="1" fill="#F3FFFF" opacity="0.086275" />
<rect x="24" y="25" width="1" height="1" fill="#F9FEFD" opacity="0.827451" />
<rect x="25" y="25" width="1" height="1" fill="#F9FEFD" />
<rect x="26" y="25" width="1" height="1" fill="#F9FEFC" opacity="0.792157" />
<rect x="13" y="26" width="1" height="1" fill="#F8FEFC" opacity="0.764706" />
<rect x="14" y="26" width="1" height="1" fill="#F9FEFD" opacity="0.800000" />
<rect x="15" y="26" width="1" height="1" fill="#F3FFFF" opacity="0.086275" />
<rect x="24" y="26" width="1" height="1" fill="#F3FFFF" opacity="0.086275" />
<rect x="25" y="26" width="1" height="1" fill="#F9FEFD" opacity="0.800000" />
<rect x="26" y="26" width="1" height="1" fill="#F8FEFC" opacity="0.764706" />
</svg>